# xmcd CD database file
#
# Track frame offsets:
#	183
#	9613
#	25145
#	59690
#	82583
#	95355
#	106290
#	120008
#	135083
#	150408
#	185225
#	195163
#	213273
#	226500
#	239040
#	253600
#	266213
#	281650
#
# Disc length: 4013 seconds
#
# Revision: 0
# Processed by: cddbd v1.5PL3 Copyright (c) Steve Scherf et al.
# Submitted via: CDex 1.51
#
DISCID=e00fab12
DTITLE=Various Artist - New Age Music and Life - Freedom (002)
DYEAR=1900
DGENRE=New Age
TTITLE0=Green Heat
TTITLE1=Praeludium (The Time of the Time)
TTITLE2=Trilogy of Life
TTITLE3=Sit-in
TTITLE4=Cancion del Sur (Candombe)
TTITLE5=Meridian
TTITLE6=Fitting Images
TTITLE7=Old Windmills
TTITLE8=The Aquarius Era
TTITLE9=Out of Dream
TTITLE10=Big Freeze
TTITLE11=Bamboo Garden
TTITLE12=Ophelia
TTITLE13=Opaque
TTITLE14=Elegy
TTITLE15=Grid Lock
TTITLE16=Burnout
TTITLE17=Hand of Apollo
EXTD=
EXTT0=
EXTT1=
EXTT2=
EXTT3=
EXTT4=
EXTT5=
EXTT6=
EXTT7=
EXTT8=
EXTT9=
EXTT10=
EXTT11=
EXTT12=
EXTT13=
EXTT14=
EXTT15=
EXTT16=
EXTT17=
PLAYORDER=
